<svg fill="#000000" xmlns="http://www.w3.org/2000/svg"  viewBox="0 0 50 50" width="100px" height="100px"><path d="M 22.6875 0.5625 L 22.09375 2 L 21.34375 3.78125 L 19.84375 3.25 L 19.25 3.03125 L 18.8125 3.4375 C 17.34375 4.800781 16.539063 6.179688 16.15625 6.875 C 15.847656 6.847656 15.609375 6.855469 14.875 6.75 L 14.09375 6.625 L 13.8125 7.375 C 13.535156 8.128906 13.179688 9.148438 12.96875 9.75 L 12.21875 9.78125 L 11.6875 9.8125 L 11.40625 10.28125 C 11.40625 10.28125 10.492188 11.773438 10 13.65625 C 9.644531 15.011719 9.628906 16.375 9.6875 17.4375 L 9.09375 17.15625 L 9.1875 18.875 C 9.1875 18.875 9.328125 21.902344 10.78125 24.3125 C 11.035156 24.867188 11.308594 25.410156 11.59375 25.90625 C 12.1875 26.925781 12.582031 27.375 12.8125 27.6875 L 11.65625 30.46875 L 11.40625 31.0625 L 11.875 31.5625 L 13.40625 33.09375 L 13.875 33.0625 L 14.25 33.03125 C 14.25 33.085938 14.25 33.132813 14.25 33.1875 C 14.257813 33.394531 14.242188 33.566406 14.34375 33.875 C 14.34375 33.871094 14.964844 36.519531 15 36.96875 C 15.039063 37.496094 15.257813 37.78125 15.46875 38.125 C 15.679688 38.46875 15.917969 38.8125 16.1875 39.15625 C 16.726563 39.84375 17.34375 40.546875 17.65625 40.9375 L 17.65625 40.96875 C 18.25 41.722656 18.625 42.46875 18.625 42.46875 L 18.75 42.71875 C 18.542969 42.679688 18.339844 42.671875 18.15625 42.6875 C 17.851563 44.699219 18.171875 47.21875 19.0625 48 C 19.757813 48 23.5 45.875 23.5 45.875 C 23.5 45.875 23.875 46.5625 24.65625 46.5625 C 25.4375 46.5625 25.523438 45.996094 25.71875 45.71875 C 28.726563 47.757813 30.3125 47.625 30.3125 47.625 C 30.3125 47.625 30.46875 46.957031 30.46875 45.28125 C 30.46875 43.714844 29.722656 42.667969 29.625 42.53125 C 29.625 42.53125 32.3125 37.472656 33.125 35.65625 C 33.535156 34.738281 33.757813 33.816406 33.90625 33.09375 L 34.09375 33.15625 L 34.8125 33.4375 L 35.28125 32.8125 L 36.65625 30.90625 L 37.125 30.25 L 36.625 29.65625 L 35.6875 28.59375 L 35.6875 28.5 L 37.75 25.15625 L 37.875 24.96875 L 37.90625 24.75 L 38.25 22.09375 C 38.25 22.09375 39 18.3125 39 15.3125 C 39 11.851563 36.96875 9.5625 36.96875 9.5625 L 36.46875 9 L 35.78125 9.3125 C 35.332031 8.441406 34.578125 7.144531 33 5.71875 L 32.03125 4.84375 L 31.4375 6 L 31.3125 6.21875 C 29.722656 4.359375 27.75 2.8125 27.75 2.8125 L 27.21875 2.4375 L 26.6875 2.75 L 25.3125 3.46875 L 23.75 1.71875 Z M 23.3125 4.21875 L 24.375 5.375 L 24.90625 5.96875 L 25.59375 5.59375 L 27.03125 4.8125 C 27.675781 5.3125 29.734375 6.953125 30.6875 8.5 L 31.625 10 L 32.4375 8.40625 L 32.53125 8.25 C 33.71875 9.664063 34.4375 11 34.4375 11 L 34.8125 12 L 35.78125 11.53125 L 35.84375 11.5 C 36.277344 12.121094 37 13.308594 37 15.3125 C 37 16.3125 36.84375 16.667969 36.71875 17.71875 C 36.488281 16.851563 36.277344 15.910156 35.6875 15.09375 L 34.84375 13.90625 L 34.03125 15.125 C 33.882813 15.351563 33.820313 15.398438 33.65625 15.625 L 32.34375 13.71875 L 31.4375 12.40625 L 30.65625 13.8125 L 30.4375 14.1875 C 29.84375 13.347656 29.035156 12.332031 28.125 11.5625 L 27.21875 10.8125 L 26.625 11.8125 C 26.363281 12.246094 26.382813 12.296875 26.21875 12.625 L 24.53125 11.34375 L 23.90625 10.84375 L 23.28125 11.375 L 19.625 14.46875 L 18.8125 13.84375 L 18 13.25 L 17.40625 14.0625 L 15.375 16.875 L 15.21875 16.65625 L 14.46875 15.59375 L 13.625 16.59375 C 13.625 16.59375 12.75 17.632813 11.9375 19.21875 L 11.875 18.9375 C 11.875 18.9375 11.375 16.308594 11.9375 14.15625 C 12.277344 12.859375 12.753906 12.117188 12.9375 11.78125 L 13.6875 11.75 L 14.375 11.75 L 14.625 11.09375 C 14.625 11.09375 15.085938 9.796875 15.4375 8.8125 C 15.898438 8.863281 16.59375 8.9375 16.59375 8.9375 L 17.28125 9 L 17.5625 8.40625 C 17.5625 8.40625 18.496094 6.734375 19.8125 5.34375 L 21.53125 5.96875 L 22.4375 6.28125 L 22.78125 5.4375 Z M 23.9375 13.40625 L 25.90625 14.9375 L 26.96875 15.75 L 27.46875 14.53125 C 27.46875 14.53125 27.652344 14.207031 27.6875 14.125 C 28.582031 15.21875 29.65625 16.625 29.65625 16.625 L 30.53125 18.09375 L 31.375 16.59375 L 31.59375 16.1875 L 32.8125 17.9375 L 33.59375 19.0625 L 34.4375 18 C 34.4375 18 34.59375 17.757813 34.625 17.71875 C 34.761719 18.109375 34.980469 18.4375 35.0625 18.8125 C 35.257813 19.6875 35.3125 20.34375 35.3125 20.34375 L 35.3125 20.5625 L 35.4375 20.78125 L 36.21875 22.09375 L 35.9375 24.3125 L 33.84375 27.65625 L 33.71875 27.84375 L 33.71875 28.09375 L 33.65625 28.84375 L 33.625 29.28125 L 33.90625 29.59375 L 34.59375 30.375 L 34.125 31.03125 L 33.1875 30.65625 L 33.40625 30.375 L 32.84375 30.46875 L 32.8125 30.5 L 32.28125 30.28125 L 32.21875 31 L 32.15625 30.9375 L 32.03125 32.03125 L 31.59375 31.78125 L 31.15625 33.5 L 30.84375 33.59375 L 30.125 32.5 L 29.875 34.875 L 29.28125 35.0625 L 28.65625 33.53125 L 28.4375 35.4375 L 26.78125 35.5 L 26.4375 33.53125 L 25.90625 33.625 L 25.8125 34.90625 L 23.53125 34.875 L 23.46875 33.65625 L 23.125 33.75 L 22.6875 36.34375 L 20.84375 36.15625 L 20.84375 34.0625 L 20.53125 34.125 L 20.09375 35.59375 L 18.46875 35.09375 L 18.8125 33.4375 L 17.9375 34.5625 L 17.375 34.3125 L 17.40625 33.53125 L 16.875 33.8125 L 16.8125 32.625 L 16.28125 32.9375 L 16.25 32.65625 C 16.261719 32.324219 16.3125 32.03125 16.3125 32.03125 L 16.40625 30.84375 L 15.28125 30.9375 L 15.15625 30.6875 L 15.21875 30.9375 L 14.1875 31.03125 L 13.75 30.59375 L 14.84375 27.96875 L 15.0625 27.4375 L 14.71875 26.96875 C 14.71875 26.96875 13.992188 26.078125 13.3125 24.90625 C 13.058594 24.46875 12.851563 23.996094 12.65625 23.53125 C 12.8125 21.558594 13.726563 20.003906 14.40625 19 L 14.53125 19.1875 L 15.34375 20.34375 L 16.15625 19.1875 L 18.4375 16.0625 L 19.09375 16.53125 L 19.71875 17 L 20.34375 16.5 Z M 14.25 22.65625 C 13.84375 23.179688 13.90625 24.625 13.90625 24.625 C 13.90625 24.625 14.332031 25.21875 14.5625 25.625 C 14.792969 26.03125 16.40625 27.59375 16.40625 27.59375 C 16.40625 27.59375 15.207031 29.074219 15.59375 29.90625 C 16.839844 29.519531 17.796875 29.09375 18.59375 28.6875 C 19.253906 28.691406 20.09375 28.09375 20.09375 28.09375 C 20.09375 28.09375 19.488281 30.40625 20.28125 30.40625 C 20.695313 30.40625 20.84375 30.214844 20.84375 29.90625 C 20.84375 29.597656 20.3125 29.34375 20.3125 29.34375 C 20.476563 27.875 21.25 27.71875 21.25 27.03125 C 21.914063 26.304688 21.96875 25.390625 21.96875 24.96875 C 21.96875 24.445313 21.5625 23.46875 21.5625 23.46875 C 21.5625 23.46875 20.867188 25.28125 20 25.28125 C 19.132813 25.28125 17.179688 24.125 16.3125 24.125 C 15.445313 24.125 14.65625 24.5625 14.65625 24.5625 C 14.597656 24.386719 14.480469 23.644531 14.25 22.65625 Z M 34.71875 22.65625 C 34.71875 22.65625 34.246094 24.691406 33.78125 25.15625 C 33.492188 25.214844 32.75 24.46875 32.75 24.46875 C 32.75 24.46875 28.277344 25.730469 27.8125 25.90625 C 27.347656 26.082031 26.0625 25.28125 26.0625 25.28125 C 26.121094 25.921875 26.714844 27.351563 27.34375 27.8125 C 28.210938 28.449219 29.726563 28.855469 30.59375 29.03125 C 31.460938 29.207031 32.15625 29.4375 32.15625 29.4375 C 32.15625 29.4375 32.503906 28.164063 32.5625 27.875 C 32.621094 27.585938 33.777344 26.777344 34.125 26.3125 C 34.472656 25.847656 35.066406 24.691406 35.09375 24.34375 C 35.152344 23.648438 34.71875 22.65625 34.71875 22.65625 Z M 22.9375 28.34375 C 22.9375 28.34375 23.011719 30.039063 23.1875 30.5625 C 23.363281 31.085938 24.511719 32.917969 24.6875 33.09375 C 24.859375 33.269531 25.601563 31.414063 25.71875 30.71875 C 25.835938 30.023438 26.0625 28.46875 26.0625 28.46875 L 24.625 30.65625 C 24.625 30.65625 23.285156 28.75 22.9375 28.34375 Z M 16.6875 34.9375 L 16.78125 34.9375 L 16.8125 35.5 C 16.777344 35.308594 16.730469 35.128906 16.6875 34.9375 Z M 30.9375 35.5625 C 30.886719 35.664063 30.867188 35.761719 30.8125 35.875 L 30.8125 35.59375 Z M 16.875 35.90625 L 17.40625 35.96875 L 17.5625 36.90625 L 18.0625 37.21875 L 18.28125 38.53125 L 18.6875 37.0625 L 19.75 37.5 L 20.09375 39.5625 L 20.46875 39.5 L 20.59375 37.84375 L 21.4375 38 L 21.53125 39.75 L 22.125 39.6875 L 22.28125 38.34375 L 23.875 38.46875 L 24.59375 40.09375 L 24.875 40.0625 L 25.25 38.28125 L 26.75 38.3125 L 26.8125 39.96875 L 27.15625 39.90625 L 27.6875 38.0625 L 28.71875 37.9375 L 28.875 39.1875 L 29.09375 39 L 29.28125 37.125 L 29.75 37.0625 L 29.96875 37.53125 C 29.179688 39.058594 28.34375 40.648438 28.125 41.0625 L 20.09375 41.0625 C 19.917969 40.722656 19.773438 40.382813 19.21875 39.6875 C 18.835938 39.207031 18.238281 38.558594 17.75 37.9375 C 17.507813 37.628906 17.296875 37.324219 17.15625 37.09375 C 17.050781 36.917969 17.007813 36.753906 17 36.75 C 16.976563 36.496094 16.925781 36.214844 16.875 35.90625 Z M 30.21875 36.375 L 30.5625 36.375 C 30.425781 36.648438 30.277344 36.957031 30.125 37.25 Z M 19.78125 43.0625 L 28.625 43.0625 L 25.40625 45 C 25.40625 45 24.933594 44.3125 24.375 44.3125 C 23.875 44.3125 23.429688 45.078125 23.34375 45.1875 C 23.078125 45.1875 21.363281 43.757813 19.78125 43.0625 Z"/></svg>