<svg xmlns="http://www.w3.org/2000/svg" viewBox="0 0 50 50" width="100" height="100"><path d="M22.688.563L22.093 2l-.75 1.781-1.5-.531-.594-.219-.438.406a13.453 13.453 0 00-2.656 3.438c-.308-.027-.547-.02-1.281-.125l-.781-.125-.281.75c-.278.754-.633 1.773-.844 2.375l-.75.031-.531.031-.282.47s-.914 1.491-1.406 3.374c-.355 1.356-.371 2.719-.313 3.781l-.593-.28.094 1.718s.14 3.027 1.593 5.438c.254.554.528 1.097.813 1.593.594 1.02.988 1.469 1.219 1.782l-1.157 2.78-.25.595.469.5 1.531 1.53.469-.03.375-.032v.157c.008.207-.008.378.094.687 0-.004.62 2.645.656 3.094.04.527.258.812.469 1.156.21.344.449.688.719 1.031.539.688 1.156 1.39 1.468 1.782v.03c.594.755.969 1.5.969 1.5l.125.25a2.215 2.215 0 00-.594-.03c-.304 2.011.016 4.53.907 5.312.695 0 4.437-2.125 4.437-2.125s.375.688 1.156.688c.782 0 .867-.567 1.063-.844 3.008 2.039 4.593 1.906 4.593 1.906s.157-.668.157-2.344c0-1.566-.746-2.613-.844-2.75 0 0 2.688-5.058 3.5-6.875.41-.918.633-1.84.781-2.562l.188.062.718.282.47-.626 1.374-1.906.469-.656-.5-.594-.938-1.062V28.5l2.063-3.344.125-.187.031-.219.344-2.656s.75-3.782.75-6.782c0-3.46-2.031-5.75-2.031-5.75l-.5-.562-.688.313c-.448-.873-1.202-2.169-2.78-3.594l-.969-.875L31.438 6l-.125.219c-1.59-1.86-3.563-3.407-3.563-3.407l-.531-.374-.532.312-1.375.719-1.562-1.75zm.625 3.656l1.062 1.156.531.594.688-.375 1.437-.782c.645.5 2.703 2.141 3.657 3.688l.937 1.5.813-1.594.093-.156A18.23 18.23 0 0134.438 11l.374 1 .97-.469.062-.031c.433.621 1.156 1.809 1.156 3.813 0 1-.156 1.355-.281 2.406-.23-.867-.442-1.809-1.032-2.625l-.843-1.188-.813 1.219c-.148.227-.21.273-.375.5l-1.312-1.906-.907-1.313-.78 1.406-.22.376c-.593-.84-1.402-1.856-2.312-2.626l-.906-.75-.594 1c-.262.434-.242.485-.406.813l-1.688-1.281-.625-.5-.625.531-3.656 3.094-.813-.625L18 13.25l-.594.813-2.031 2.812-.156-.219-.75-1.062-.844 1s-.875 1.039-1.688 2.625l-.062-.282s-.5-2.628.063-4.78c.34-1.298.816-2.04 1-2.376l.75-.031h.687l.25-.656s.46-1.297.813-2.281l1.156.124.687.063.282-.594s.933-1.672 2.25-3.062l1.718.625.907.312.343-.843zm.625 9.187l1.968 1.531 1.063.813.5-1.219s.183-.324.218-.406c.895 1.094 1.97 2.5 1.97 2.5l.874 1.469.844-1.5.219-.407 1.218 1.75.782 1.125.843-1.062s.157-.242.188-.281c.137.39.355.718.438 1.093.195.875.25 1.532.25 1.532v.218l.124.22.782 1.312-.282 2.218-2.093 3.344-.125.188v.25l-.063.75-.031.437.281.313.688.781-.469.656-.938-.375.22-.281-.563.094-.032.031-.53-.219-.063.719-.063-.063-.125 1.094-.437-.25-.438 1.719-.312.094-.719-1.094-.25 2.375-.594.188-.625-1.532-.218 1.907-1.657.062-.343-1.969-.532.094-.093 1.281-2.282-.031-.062-1.219-.344.094-.438 2.594-1.843-.188v-2.093l-.313.062-.437 1.469-1.625-.5.343-1.657-.875 1.126-.562-.25.031-.782-.531.282-.063-1.188-.53.313-.032-.282c.012-.332.063-.625.063-.625l.093-1.187-1.125.093-.125-.25.063.25-1.031.094-.438-.437 1.094-2.625.219-.532-.344-.468s-.727-.89-1.406-2.063a11.98 11.98 0 01-.657-1.375c.156-1.972 1.07-3.527 1.75-4.531l.125.188.813 1.156.812-1.157 2.282-3.125.656.47.625.468.625-.5zm-9.688 9.25c-.406.524-.344 1.969-.344 1.969s.426.594.656 1c.231.406 1.844 1.969 1.844 1.969s-1.199 1.48-.812 2.312a18.542 18.542 0 003-1.218c.66.003 1.5-.594 1.5-.594s-.606 2.312.187 2.312c.414 0 .563-.191.563-.5 0-.308-.532-.562-.532-.562.165-1.469.938-1.625.938-2.313.664-.726.719-1.64.719-2.062 0-.524-.407-1.5-.407-1.5S20.867 25.28 20 25.28c-.867 0-2.82-1.156-3.688-1.156-.867 0-1.656.438-1.656.438-.058-.176-.176-.918-.406-1.907zm20.469 0s-.473 2.035-.938 2.5c-.289.059-1.031-.687-1.031-.687s-4.473 1.261-4.938 1.437c-.464.176-1.75-.625-1.75-.625.06.64.653 2.07 1.282 2.532.867.636 2.383 1.042 3.25 1.218.867.176 1.562.407 1.562.407s.348-1.274.407-1.563c.058-.29 1.214-1.098 1.562-1.563.348-.464.941-1.62.969-1.968.058-.696-.375-1.688-.375-1.688zm-11.782 5.688s.075 1.695.25 2.218c.176.524 1.325 2.356 1.5 2.532.172.176.915-1.68 1.032-2.375.117-.696.343-2.25.343-2.25l-1.437 2.187s-1.34-1.906-1.688-2.312zm-6.25 6.593h.094l.032.563c-.036-.191-.083-.371-.125-.563zm14.25.626c-.05.101-.07.199-.125.312v-.281zm-14.062.343l.531.063.157.937.5.313.218 1.312.407-1.468 1.062.437.344 2.063.375-.063.125-1.656.843.156.094 1.75.594-.063.156-1.343 1.594.125.719 1.625.281-.032.375-1.78 1.5.03.063 1.657.343-.063.532-1.843 1.03-.126.157 1.25.219-.187.187-1.875.469-.063.219.47a514.313 514.313 0 01-1.844 3.53h-8.031c-.176-.34-.32-.68-.875-1.374-.383-.481-.98-1.13-1.469-1.75a9.247 9.247 0 01-.594-.844c-.105-.176-.148-.34-.156-.344-.023-.254-.074-.535-.125-.844zm13.344.469h.343c-.136.273-.285.582-.437.875zM19.78 43.063h8.844L25.406 45s-.472-.688-1.031-.688c-.5 0-.945.766-1.031.876-.266 0-1.98-1.43-3.563-2.126z"/></svg>